<svg xmlns="http://www.w3.org/2000/svg" width="106" height="21" fill="none"><g fill="#fff" clip-path="url(#harmoni-light_svg__a)"><path d="M0 20.48V.88h3.22v19.6zm12.46 0V.88h3.22v19.6zM2.212 11.8V8.86H13.16v2.94zM25.142 20.76q-1.82 0-3.304-.924a6.8 6.8 0 0 1-2.324-2.492q-.84-1.596-.84-3.556 0-1.987.84-3.556.867-1.596 2.324-2.52 1.483-.952 3.304-.952 1.54 0 2.716.672a4.9 4.9 0 0 1 1.904 1.792q.7 1.147.7 2.604v3.864q0 1.456-.7 2.604a4.9 4.9 0 0 1-1.876 1.82q-1.205.645-2.744.644m.504-2.912q1.707 0 2.744-1.148 1.064-1.148 1.064-2.94-.001-1.204-.476-2.128a3.43 3.43 0 0 0-1.344-1.428q-.84-.532-1.988-.532-1.12 0-1.988.532a3.7 3.7 0 0 0-1.344 1.428q-.477.924-.476 2.128 0 1.204.476 2.128a3.9 3.9 0 0 0 1.344 1.456q.866.504 1.988.504m3.612 2.632v-3.612l.532-3.276-.532-3.248V7.04h3.08v13.44zM35.756 20.48V7.04h3.08v13.44zm3.08-7.476-1.064-.532q0-2.548 1.12-4.116 1.147-1.596 3.444-1.596 1.007 0 1.82.364.811.364 1.512 1.176l-2.016 2.072a2.1 2.1 0 0 0-.812-.56 3 3 0 0 0-1.036-.168q-1.288 0-2.128.812-.84.811-.84 2.548M47.158 20.48V7.04h3.08v13.44zm8.932 0v-8.008q0-1.344-.84-2.072-.84-.756-2.072-.756-.84 0-1.512.336-.644.335-1.036.98-.392.616-.392 1.512l-1.204-.672q0-1.54.672-2.66a4.65 4.65 0 0 1 1.82-1.736q1.148-.644 2.576-.644 1.427 0 2.576.616t1.82 1.736.672 2.688v8.68zm8.932 0v-8.008q0-1.344-.84-2.072-.84-.756-2.072-.756-.812 0-1.484.336-.672.335-1.064.98-.392.616-.392 1.512l-1.736-.672q.14-1.54.896-2.66a5.2 5.2 0 0 1 1.932-1.736 5.5 5.5 0 0 1 2.632-.644q1.456 0 2.632.616t1.876 1.736.7 2.688v8.68zM77.435 20.76q-1.96 0-3.556-.924a7.24 7.24 0 0 1-2.548-2.548q-.924-1.596-.924-3.556t.924-3.528a7.1 7.1 0 0 1 2.548-2.492q1.596-.952 3.556-.952 1.988 0 3.584.924a6.8 6.8 0 0 1 2.52 2.52q.952 1.568.952 3.528t-.952 3.556a7 7 0 0 1-2.52 2.548q-1.596.924-3.584.924m0-2.968q1.149 0 2.016-.504a3.56 3.56 0 0 0 1.372-1.456q.504-.924.504-2.1t-.504-2.072a3.66 3.66 0 0 0-1.372-1.4q-.867-.532-2.016-.532-1.119 0-2.016.532a3.66 3.66 0 0 0-1.372 1.4q-.476.896-.476 2.072t.476 2.1a3.8 3.8 0 0 0 1.372 1.456q.897.504 2.016.504M96.265 20.48v-7.756q0-1.344-.868-2.212-.84-.868-2.184-.868-.897 0-1.596.392-.7.391-1.092 1.092-.392.7-.392 1.596l-1.204-.672q0-1.54.672-2.716a4.83 4.83 0 0 1 1.848-1.876q1.203-.7 2.688-.7 1.512 0 2.688.784a5.4 5.4 0 0 1 1.848 1.988 5.1 5.1 0 0 1 .672 2.52v8.428zm-9.212 0V7.04h3.08v13.44zM102.503 20.48V7.04h3.08v13.44zm1.54-15.904q-.785 0-1.316-.532-.504-.532-.504-1.316t.504-1.316a1.79 1.79 0 0 1 1.316-.532q.812 0 1.316.532t.504 1.316-.504 1.316-1.316.532" style="fill: rgb(255, 255, 255); fill-opacity: 1;"></path></g><defs><clipPath id="harmoni-light_svg__a"><path fill="#fff" d="M0 0h105.863v19.88H0z" style="fill: rgb(255, 255, 255); fill-opacity: 1;" transform="translate(0 .88)"></path></clipPath></defs></svg>